<?xml version="1.0" encoding="iso-8859-1"?>
<!-- Generator: Adobe Illustrator 19.0.0, SVG Export Plug-In . SVG Version: 6.00 Build 0)  -->
<svg version="1.1" id="Capa_1" xmlns="http://www.w3.org/2000/svg" xmlns:xlink="http://www.w3.org/1999/xlink" x="0px" y="0px"
	 viewBox="0 0 512.004 512.004" style="enable-background:new 0 0 512.004 512.004;" xml:space="preserve">
<g>
	<g>
		<path d="M232.05,93.871H480.8c6.756,0.05,13.244-2.639,17.983-7.454c5.445-5.315,8.206-12.801,7.517-20.379
			c-1.485-13.441-12.937-23.555-26.458-23.367l-247.825,0.446c-3.481-10.456-13.263-17.51-24.283-17.513h-71.151l-6.024-19.575
			c-1.385-4.506-6.161-7.035-10.667-5.65c-4.506,1.385-7.035,6.161-5.65,10.667l4.481,14.558h-16.274L96.425,6.029
			c-1.385-4.506-6.161-7.035-10.667-5.65s-7.035,6.161-5.65,10.667l4.48,14.558H71.2c-4.713,0-8.533,3.821-8.533,8.533
			s3.82,8.533,8.533,8.533h18.639l5.252,17.067H71.2c-4.713,0-8.533,3.82-8.533,8.533s3.82,8.533,8.533,8.533h29.141l5.251,17.067
			H71.2c-4.713,0-8.533,3.82-8.533,8.533s3.82,8.533,8.533,8.533h39.644l3.397,11.042c0.896,2.915,3.279,5.13,6.251,5.811
			c2.972,0.681,6.082-0.275,8.158-2.508c2.076-2.233,2.803-5.405,1.907-8.32l-1.854-6.025h16.445
			c3.75,11.853,8.773,23.264,14.984,34.033c7.275,12.362,27.042,42.063,53.433,50.862c8.552,2.629,15.291,9.255,18.064,17.763
			c-2.257-0.129-4.514-0.258-6.831-0.258c-34.466-0.714-67.783,12.398-92.517,36.412c-60.494,11.642-85.74,64.733-92.742,83.055
			H31.2c-8.968-0.002-17.283,4.691-21.918,12.369c-4.634,7.678-4.912,17.222-0.732,25.156l45.775,86.967
			c17.66,33.685,52.575,54.766,90.608,54.708h210.933c38.033,0.057,72.948-21.024,90.608-54.708l45.775-86.967
			c4.179-7.931,3.903-17.47-0.726-25.146c-4.629-7.676-12.938-12.371-21.902-12.376c-9.059-22.568-46.244-102.403-118.956-102.403
			c-16.915-0.129-33.632,3.635-48.858,11.003c-15.151-12.324-32.935-20.998-51.975-25.348
			c-2.571-17.001-14.517-31.095-30.867-36.417c-21.508-7.167-39.208-34.971-44.117-43.321c-4.612-8.092-8.474-16.588-11.539-25.383
			h44.422C218.623,110.933,228.344,104.11,232.05,93.871z M156.825,264.538c62.393,0,94.138,46.147,105.795,68.267h-19.67
			c-17.61-31.12-50.374-50.597-86.125-51.2c-34.456-0.088-65.802,19.914-80.239,51.2H57.849
			C67.14,311.114,94.317,264.538,156.825,264.538z M221.211,264.681c1.2-0.041,2.369-0.143,3.589-0.143
			c41.991,0,71.06,41.233,85.623,68.267h-28.849C268.471,304.732,247.502,281.067,221.211,264.681z M222.179,332.804H96.143
			c12.573-21.507,35.773-34.557,60.682-34.133C182.818,298.932,207.114,311.621,222.179,332.804z M476.901,353.992
			c1.574,2.551,1.669,5.747,0.25,8.387l-45.775,86.967c-14.717,28.071-43.813,45.639-75.508,45.592H144.934
			c-31.695,0.048-60.791-17.52-75.508-45.592L23.65,362.379c-1.391-2.645-1.297-5.825,0.247-8.383
			c1.544-2.558,4.314-4.123,7.303-4.125h395.369l0.148,0.021l0.093-0.021h42.79C472.595,349.841,475.378,351.412,476.901,353.992z
			 M367.164,332.804c-7.352-17.717-16.587-34.593-27.546-50.336c3.655-0.579,7.349-0.868,11.049-0.864
			c28.726,0,50.364,29.956,62.102,51.2H367.164z M350.667,247.471c55.9,0,88.83,59.826,100.329,85.333h-18.94
			c-13.684-27.576-40.764-68.267-81.389-68.267c-7.57-0.027-15.108,0.988-22.402,3.016c-3.91-4.703-8.131-9.324-12.631-13.79
			C326.818,249.503,338.699,247.368,350.667,247.471z M348.493,332.804h-18.861c-14.383-29.154-49.321-85.333-104.832-85.333
			c-11.012-0.052-21.966,1.595-32.477,4.881c-9.83-2.771-19.956-4.355-30.163-4.718c18.778-11.672,40.534-17.656,62.64-17.229
			C294.848,230.404,335.322,303.97,348.493,332.804z M112.951,59.738L107.7,42.671h16.275l5.252,17.067H112.951z M123.453,93.871
			l-5.251-17.067h16.277l5.252,17.067H123.453z M165.067,93.871h-7.477l-5.252-17.067h12.729c2.302-0.006,4.503,0.939,6.083,2.612
			c1.586,1.56,2.47,3.697,2.45,5.921C173.596,90.048,169.778,93.866,165.067,93.871z M165.067,59.738h-17.981l-5.252-17.067h23.232
			c2.302-0.006,4.503,0.939,6.083,2.612c1.586,1.56,2.47,3.697,2.45,5.921C173.596,55.915,169.778,59.733,165.067,59.738z
			 M184.125,68.283c4.218-4.688,6.548-10.773,6.542-17.079c0.004-2.905-0.484-5.79-1.442-8.533h18.508
			c3.681,0.008,6.945,2.371,8.1,5.867c2.433,6.833,8.964,11.344,16.217,11.2h247.792c4.652-0.168,8.704,3.148,9.458,7.742v0.009
			c0.245,2.561-0.705,5.091-2.575,6.858c-1.559,1.591-3.698,2.478-5.925,2.458H232.05c-7.253-0.144-13.786,4.369-16.217,11.204
			c-1.157,3.493-4.42,5.855-8.1,5.862h-18.525c0.967-2.741,1.46-5.627,1.458-8.533C190.711,79.032,188.375,72.942,184.125,68.283z"
			/>
	</g>
</g>
<g>
</g>
<g>
</g>
<g>
</g>
<g>
</g>
<g>
</g>
<g>
</g>
<g>
</g>
<g>
</g>
<g>
</g>
<g>
</g>
<g>
</g>
<g>
</g>
<g>
</g>
<g>
</g>
<g>
</g>
</svg>
